<?xml version="1.0" encoding="utf-8"?>
<svg enable-background="new 0 0 100 100" viewBox="0 0 100 100" xmlns="http://www.w3.org/2000/svg">
  <defs/>
  <path d="M15.08,45.494c0-16.798,13.616-30.414,30.414-30.414c16.797,0,30.414,13.617,30.414,30.414&#10;&#9;&#9;&#9;&#9;&#9;c0,16.797-13.617,30.414-30.414,30.414C28.697,75.908,15.08,62.291,15.08,45.494z" style="fill: rgb(241, 209, 9);"/>
  <path d="M45.494,77.035c-17.392,0-31.541-14.149-31.541-31.54c0-17.392,14.149-31.541,31.541-31.541&#10;&#9;&#9;&#9;&#9;&#9;c17.391,0,31.54,14.149,31.54,31.541C77.035,62.886,62.886,77.035,45.494,77.035z M45.494,16.206&#10;&#9;&#9;&#9;&#9;&#9;c-16.15,0-29.288,13.138-29.288,29.288c0,16.149,13.138,29.287,29.288,29.287s29.287-13.138,29.287-29.287&#10;&#9;&#9;&#9;&#9;&#9;C74.782,29.345,61.644,16.206,45.494,16.206z"/>
  <path d="M19.802 51.564c-1.024-2.435.602-5.371 3.632-6.555 3.03-1.185 6.316-.172 7.34 2.264 1.023 2.436-.603 5.371-3.633 6.556C24.111 55.014 20.825 54 19.802 51.564zM71.187 51.564c1.024-2.435-.603-5.371-3.632-6.555-3.03-1.185-6.316-.172-7.34 2.264-1.024 2.436.602 5.371 3.632 6.556C66.877 55.014 70.164 54 71.187 51.564z" style="fill: rgb(249, 240, 87);"/>
  <path fill="#fff" d="M48.874,70.13c0,8.168,8.069,14.79,18.023,14.79c9.954,0,18.023-6.622,18.023-14.79&#10;&#9;&#9;&#9;&#9;&#9;c0-8.168-8.069-14.789-18.023-14.789c-2.442,0-4.77,0.401-6.894,1.123l-6.819-3.033c-0.385-0.171-0.822,0.104-0.822,0.518v7.439&#10;&#9;&#9;&#9;&#9;&#9;C50.171,63.837,48.874,66.859,48.874,70.13z"/>
  <path d="M66.896,86.046c-10.559,0-19.149-7.14-19.149-15.916c0-3.314,1.204-6.473,3.488-9.164v-7.018&#10;&#9;&#9;&#9;&#9;&#9;c0-0.574,0.288-1.104,0.772-1.418c0.488-0.318,1.101-0.366,1.633-0.129l6.422,2.857c2.182-0.693,4.478-1.044,6.833-1.044&#10;&#9;&#9;&#9;&#9;&#9;c10.56,0,19.15,7.14,19.15,15.916C86.047,78.906,77.456,86.046,66.896,86.046z M53.488,54.799v7.019l-0.287,0.321&#10;&#9;&#9;&#9;&#9;&#9;C51.107,64.479,50,67.243,50,70.13c0,7.534,7.579,13.663,16.896,13.663c9.318,0,16.897-6.129,16.897-13.663&#10;&#9;&#9;&#9;&#9;&#9;c0-7.533-7.579-13.663-16.897-13.663c-2.26,0-4.457,0.358-6.531,1.063l-0.418,0.142L53.488,54.799z"/>
  <path d="M59.575,70.041c0,1.552-1.261,2.809-2.816,2.809c-1.555,0-2.816-1.257-2.816-2.809&#10;&#9;&#9;&#9;&#9;&#9;&#9;c0-1.551,1.261-2.808,2.816-2.808C58.314,67.233,59.575,68.49,59.575,70.041z" style="fill: rgb(69, 241, 155);"/>
  <path d="M56.759,73.976c-2.174,0-3.943-1.765-3.943-3.935c0-2.17,1.769-3.935,3.943-3.935c2.174,0,3.943,1.765,3.943,3.935&#10;&#9;&#9;&#9;&#9;&#9;&#9;C60.701,72.211,58.933,73.976,56.759,73.976z M56.759,68.359c-0.932,0-1.69,0.755-1.69,1.682s0.758,1.682,1.69,1.682&#10;&#9;&#9;&#9;&#9;&#9;&#9;c0.932,0,1.69-0.755,1.69-1.682S57.691,68.359,56.759,68.359z"/>
  <path d="M69.713,70.041c0,1.552-1.261,2.809-2.817,2.809c-1.555,0-2.816-1.257-2.816-2.809&#10;&#9;&#9;&#9;&#9;&#9;&#9;c0-1.551,1.261-2.808,2.816-2.808C68.452,67.233,69.713,68.49,69.713,70.041z" style="fill: rgb(78, 142, 242);"/>
  <path d="M66.896,73.976c-2.174,0-3.942-1.765-3.942-3.935c0-2.17,1.769-3.935,3.942-3.935c2.174,0,3.943,1.765,3.943,3.935&#10;&#9;&#9;&#9;&#9;&#9;&#9;C70.84,72.211,69.07,73.976,66.896,73.976z M66.896,68.359c-0.932,0-1.69,0.755-1.69,1.682s0.758,1.682,1.69,1.682&#10;&#9;&#9;&#9;&#9;&#9;&#9;c0.932,0,1.69-0.755,1.69-1.682S67.828,68.359,66.896,68.359z"/>
  <path d="M79.851,70.041c0,1.552-1.261,2.809-2.816,2.809c-1.555,0-2.816-1.257-2.816-2.809&#10;&#9;&#9;&#9;&#9;&#9;&#9;c0-1.551,1.261-2.808,2.816-2.808C78.59,67.233,79.851,68.49,79.851,70.041z" style="fill: rgb(223, 41, 152);"/>
  <path d="M77.035,73.976c-2.174,0-3.942-1.765-3.942-3.935c0-2.17,1.769-3.935,3.942-3.935s3.942,1.765,3.942,3.935&#10;&#9;&#9;&#9;&#9;&#9;&#9;C80.977,72.211,79.208,73.976,77.035,73.976z M77.035,68.359c-0.932,0-1.69,0.755-1.69,1.682s0.758,1.682,1.69,1.682&#10;&#9;&#9;&#9;&#9;&#9;&#9;s1.69-0.755,1.69-1.682S77.966,68.359,77.035,68.359z"/>
  <g>
    <path fill="#fff" d="M24.092,40.988c0-4.355,3.531-3.379,7.885-3.379c4.355,0,7.885-0.976,7.885,3.379&#10;&#9;&#9;&#9;&#9;s-3.53,7.885-7.885,7.885C27.622,48.874,24.092,45.343,24.092,40.988z"/>
    <path d="M31.977,50c-4.969,0-9.012-4.042-9.012-9.012c0-1.536,0.388-2.657,1.188-3.427c1.345-1.296,3.421-1.218,5.823-1.128&#10;&#9;&#9;&#9;&#9;c1.276,0.048,2.726,0.048,4.002,0c2.402-0.09,4.477-0.168,5.822,1.128c0.8,0.77,1.188,1.89,1.188,3.427&#10;&#9;&#9;&#9;&#9;C40.988,45.958,36.946,50,31.977,50z M28.24,38.642c-1.149,0-2.07,0.105-2.523,0.542c-0.331,0.318-0.498,0.925-0.498,1.804&#10;&#9;&#9;&#9;&#9;c0,3.727,3.032,6.759,6.759,6.759c3.727,0,6.759-3.032,6.759-6.759c0-0.879-0.167-1.486-0.498-1.804&#10;&#9;&#9;&#9;&#9;c-0.655-0.632-2.286-0.569-4.175-0.5c-1.331,0.051-2.84,0.051-4.171,0C29.31,38.663,28.752,38.642,28.24,38.642z"/>
    <path d="M28.598,40.988c0-1.866,1.512-3.379,3.379-3.379c1.866,0,3.379,1.513,3.379,3.379&#10;&#9;&#9;&#9;&#9;c0,1.867-1.513,3.38-3.379,3.38C30.11,44.368,28.598,42.855,28.598,40.988z" style="fill: rgb(85, 201, 212);"/>
    <path d="M31.977,45.494c-2.485,0-4.506-2.022-4.506-4.506c0-2.484,2.021-4.506,4.506-4.506c2.485,0,4.506,2.021,4.506,4.506&#10;&#9;&#9;&#9;&#9;C36.483,43.473,34.462,45.494,31.977,45.494z M31.977,38.736c-1.242,0-2.253,1.01-2.253,2.253c0,1.242,1.011,2.253,2.253,2.253&#10;&#9;&#9;&#9;&#9;c1.242,0,2.253-1.01,2.253-2.253C34.23,39.746,33.219,38.736,31.977,38.736z"/>
    <path fill="#fff" d="M51.126,40.988c0-4.355,3.53-3.379,7.885-3.379c4.355,0,7.885-0.976,7.885,3.379&#10;&#9;&#9;&#9;&#9;s-3.53,7.885-7.885,7.885C54.657,48.874,51.126,45.343,51.126,40.988z"/>
    <path d="M59.012,50C54.042,50,50,45.958,50,40.988c0-1.536,0.388-2.657,1.188-3.427c1.345-1.296,3.421-1.218,5.823-1.128&#10;&#9;&#9;&#9;&#9;c1.276,0.048,2.726,0.048,4.002,0c2.401-0.09,4.477-0.168,5.822,1.128c0.8,0.77,1.188,1.89,1.188,3.427&#10;&#9;&#9;&#9;&#9;C68.023,45.958,63.98,50,59.012,50z M55.275,38.642c-1.15,0-2.07,0.105-2.523,0.542c-0.331,0.318-0.498,0.925-0.498,1.804&#10;&#9;&#9;&#9;&#9;c0,3.727,3.032,6.759,6.759,6.759c3.727,0,6.758-3.032,6.758-6.759c0-0.879-0.167-1.486-0.498-1.804&#10;&#9;&#9;&#9;&#9;c-0.655-0.632-2.287-0.569-4.174-0.5c-1.331,0.051-2.84,0.051-4.171,0C56.344,38.663,55.787,38.642,55.275,38.642z"/>
    <g>
      <path d="M55.632,40.988c0-1.866,1.513-3.379,3.38-3.379c1.866,0,3.379,1.513,3.379,3.379&#10;&#9;&#9;&#9;&#9;c0,1.867-1.513,3.38-3.379,3.38C57.145,44.368,55.632,42.855,55.632,40.988z" style="fill: rgb(137, 200, 240);"/>
      <path d="M59.012,45.494c-2.485,0-4.506-2.022-4.506-4.506c0-2.484,2.021-4.506,4.506-4.506c2.485,0,4.506,2.021,4.506,4.506&#10;&#9;&#9;&#9;&#9;C63.517,43.473,61.497,45.494,59.012,45.494z M59.012,38.736c-1.242,0-2.253,1.01-2.253,2.253c0,1.242,1.011,2.253,2.253,2.253&#10;&#9;&#9;&#9;&#9;c1.242,0,2.253-1.01,2.253-2.253C61.264,39.746,60.254,38.736,59.012,38.736z" style=""/>
    </g>
  </g>
  <g>
    <path fill="#f95555" d="M47.184,60.138c-7.154,0-12.954-3.514-12.954-5.069c0-1.555,5.8-0.563,12.954-0.563V60.138z"/>
    <path d="M48.31,61.265h-1.126c-7.12,0-14.08-3.548-14.08-6.196c0-0.46,0.186-0.891,0.522-1.212c0.963-0.921,2.955-0.87,7.36-0.662&#10;&#9;&#9;&#9;c1.855,0.086,3.958,0.185,6.198,0.185h1.126v2.253h-1.126c-2.292,0-4.423-0.099-6.302-0.188c-2.019-0.093-4.256-0.198-5.283-0.048&#10;&#9;&#9;&#9;c1.112,1.136,5.673,3.615,11.586,3.615h1.126V61.265z"/>
  </g>
  <g>
    <path d="M39.862,33.104h-1.126c-2.188,0-3.842-1.25-5.171-2.256c-0.312-0.235-1.167-0.878-1.587-1.085&#10;&#9;&#9;&#9;&#9;c-0.422,0.207-1.282,0.856-1.586,1.085c-1.331,1.005-2.987,2.255-5.173,2.255h-1.126V30.85h1.126c1.431,0,2.643-0.915,3.815-1.8&#10;&#9;&#9;&#9;&#9;c2.834-2.139,3.05-2.139,5.875-0.01c1.185,0.895,2.395,1.809,3.827,1.809h1.126V33.104z M31.846,29.71h0.001&#10;&#9;&#9;&#9;&#9;C31.847,29.71,31.847,29.71,31.846,29.71z M32.108,29.709L32.108,29.709L32.108,29.709z"/>
  </g>
  <g>
    <path d="M66.896,33.104H65.77c-2.188,0-3.842-1.25-5.171-2.256c-0.312-0.235-1.167-0.878-1.587-1.085&#10;&#9;&#9;&#9;&#9;c-0.422,0.207-1.283,0.856-1.586,1.085c-1.331,1.005-2.987,2.255-5.173,2.255h-1.126V30.85h1.126c1.431,0,2.643-0.915,3.815-1.8&#10;&#9;&#9;&#9;&#9;c2.834-2.139,3.05-2.139,5.875-0.01c1.185,0.895,2.395,1.809,3.827,1.809h1.126V33.104z M58.881,29.71h0.001&#10;&#9;&#9;&#9;&#9;C58.882,29.71,58.882,29.71,58.881,29.71z M59.143,29.709L59.143,29.709L59.143,29.709z"/>
  </g>
</svg>